<svg xmlns="http://www.w3.org/2000/svg" xmlns:xlink="http://www.w3.org/1999/xlink" viewBox="0 0 204.57 300.76"><defs><style>.cls-1{fill:none;}.cls-2{isolation:isolate;}.cls-3{fill:#88b2e5;}.cls-4{fill:#3771c4;}.cls-5{fill:#1c4e9a;}.cls-6{fill:#e9ebf7;}.cls-7{clip-path:url(#clip-path);}.cls-8{fill:#ee6e50;}.cls-9{fill:#ff9783;}.cls-10{fill:#f48576;}.cls-11{fill:#d34b39;}.cls-12{fill:#e25e44;}.cls-13{opacity:0.15;mix-blend-mode:multiply;}</style><clipPath id="clip-path"><rect class="cls-1" x="19.45" y="88.6" width="220.29" height="130.87" transform="translate(283.63 24.45) rotate(90)"/></clipPath></defs><title>medved_404</title><g class="cls-2"><g id="Слой_2" data-name="Слой 2"><g id="OBJECT"><path class="cls-3" d="M202.34,63.07c-1.07,0-2,.25-2,.55V82.94c0,.3.88.55,2,.55s1.95-.25,1.95-.55V63.62C204.29,63.32,203.42,63.07,202.34,63.07Z"/><rect class="cls-4" x="200.12" y="69.34" width="4.45" height="1.04"/><rect class="cls-4" x="200.12" y="76.17" width="4.45" height="1.04"/><path class="cls-3" d="M202.34,198.28c-1.07,0-2,.25-2,.55v19.32c0,.3.88.55,2,.55s1.95-.25,1.95-.55V198.83C204.29,198.53,203.42,198.28,202.34,198.28Z"/><rect class="cls-4" x="200.12" y="204.56" width="4.45" height="1.04"/><rect class="cls-4" x="200.12" y="211.38" width="4.45" height="1.04"/><rect class="cls-5" x="56.84" y="36.58" width="145.5" height="227.6"/><rect class="cls-6" x="19.45" y="88.6" width="220.29" height="130.87" transform="translate(283.63 24.45) rotate(90)"/><g class="cls-7"><rect class="cls-8" y="5.51" width="30.45" height="12.5" rx="1.22"/><rect class="cls-8" x="33.25" y="5.51" width="30.45" height="12.5" rx="1.22"/><rect class="cls-8" x="66.49" y="5.51" width="30.45" height="12.5" rx="1.22"/><rect class="cls-8" x="99.74" y="5.51" width="30.45" height="12.5" rx="1.22"/><rect class="cls-8" x="132.99" y="5.51" width="30.45" height="12.5" rx="1.22"/><rect class="cls-8" x="166.23" y="5.51" width="30.45" height="12.5" rx="1.22"/><rect class="cls-8" x="16.62" y="20.75" width="30.45" height="12.5" rx="1.22"/><rect class="cls-8" x="49.87" y="20.75" width="30.45" height="12.5" rx="1.22"/><rect class="cls-8" x="83.12" y="20.75" width="30.45" height="12.5" rx="1.22"/><rect class="cls-8" x="116.36" y="20.75" width="30.45" height="12.5" rx="1.22"/><rect class="cls-8" x="149.61" y="20.75" width="30.45" height="12.5" rx="1.22"/><rect class="cls-8" y="35.99" width="30.45" height="12.5" rx="1.22"/><rect class="cls-8" x="33.25" y="35.99" width="30.45" height="12.5" rx="1.22"/><rect class="cls-9" x="66.49" y="35.99" width="30.45" height="12.5" rx="1.22"/><rect class="cls-8" x="99.74" y="35.99" width="30.45" height="12.5" rx="1.22"/><rect class="cls-8" x="132.99" y="35.99" width="30.45" height="12.5" rx="1.22"/><rect class="cls-8" x="166.23" y="35.99" width="30.45" height="12.5" rx="1.22"/><rect class="cls-8" x="16.62" y="51.23" width="30.45" height="12.5" rx="1.22"/><rect class="cls-9" x="49.87" y="51.23" width="30.45" height="12.5" rx="1.22"/><rect class="cls-9" x="83.12" y="51.23" width="30.45" height="12.5" rx="1.22"/><rect class="cls-8" x="116.36" y="51.23" width="30.45" height="12.5" rx="1.22"/><rect class="cls-8" x="149.61" y="51.23" width="30.45" height="12.5" rx="1.22"/><rect class="cls-8" y="66.47" width="30.45" height="12.5" rx="1.22"/><rect class="cls-8" x="33.25" y="66.47" width="30.45" height="12.5" rx="1.22"/><rect class="cls-10" x="66.49" y="66.47" width="30.45" height="12.5" rx="1.22"/><rect class="cls-10" x="99.74" y="66.47" width="30.45" height="12.5" rx="1.22"/><rect class="cls-11" x="132.99" y="66.47" width="30.45" height="12.5" rx="1.22"/><rect class="cls-8" x="166.23" y="66.47" width="30.45" height="12.5" rx="1.22"/><rect class="cls-8" x="16.62" y="81.72" width="30.45" height="12.5" rx="1.22"/><rect class="cls-8" x="49.87" y="81.72" width="30.45" height="12.5" rx="1.22"/><rect class="cls-8" x="83.12" y="81.72" width="30.45" height="12.5" rx="1.22"/><rect class="cls-8" x="116.36" y="81.72" width="30.45" height="12.5" rx="1.22"/><rect class="cls-8" x="149.61" y="81.72" width="30.45" height="12.5" rx="1.22"/><rect class="cls-8" y="96.96" width="30.45" height="12.5" rx="1.22"/><rect class="cls-8" x="33.25" y="96.96" width="30.45" height="12.5" rx="1.22"/><rect class="cls-12" x="66.49" y="96.96" width="30.45" height="12.5" rx="1.22"/><rect class="cls-8" x="99.74" y="96.96" width="30.45" height="12.5" rx="1.22"/><rect class="cls-8" x="132.99" y="96.96" width="30.45" height="12.5" rx="1.22"/><rect class="cls-8" x="166.23" y="96.96" width="30.45" height="12.5" rx="1.22"/><rect class="cls-8" x="16.62" y="112.2" width="30.45" height="12.5" rx="1.22"/><rect class="cls-8" x="49.87" y="112.2" width="30.45" height="12.5" rx="1.22"/><rect class="cls-11" x="83.12" y="112.2" width="30.45" height="12.5" rx="1.22"/><rect class="cls-10" x="116.36" y="112.2" width="30.45" height="12.5" rx="1.22"/><rect class="cls-8" x="149.61" y="112.2" width="30.45" height="12.5" rx="1.22"/><rect class="cls-8" y="127.44" width="30.45" height="12.5" rx="1.22"/><rect class="cls-8" x="33.25" y="127.44" width="30.45" height="12.5" rx="1.22"/><rect class="cls-12" x="66.49" y="127.44" width="30.45" height="12.5" rx="1.22"/><rect class="cls-8" x="99.74" y="127.44" width="30.45" height="12.5" rx="1.22"/><rect class="cls-10" x="132.99" y="127.44" width="30.45" height="12.5" rx="1.22"/><rect class="cls-8" x="166.23" y="127.44" width="30.45" height="12.5" rx="1.22"/><rect class="cls-8" x="16.62" y="142.68" width="30.45" height="12.5" rx="1.22"/><rect class="cls-10" x="49.87" y="142.68" width="30.45" height="12.5" rx="1.22"/><rect class="cls-8" x="83.12" y="142.68" width="30.45" height="12.5" rx="1.22"/><rect class="cls-9" x="116.36" y="142.68" width="30.45" height="12.5" rx="1.22"/><rect class="cls-8" x="149.61" y="142.68" width="30.45" height="12.5" rx="1.22"/><rect class="cls-8" y="157.92" width="30.45" height="12.5" rx="1.22"/><rect class="cls-8" x="33.25" y="157.92" width="30.45" height="12.5" rx="1.22"/><rect class="cls-9" x="66.49" y="157.92" width="30.45" height="12.5" rx="1.22"/><rect class="cls-8" x="99.74" y="157.92" width="30.45" height="12.5" rx="1.22"/><rect class="cls-8" x="132.99" y="157.92" width="30.45" height="12.5" rx="1.22"/><rect class="cls-8" x="166.23" y="157.92" width="30.45" height="12.5" rx="1.22"/><rect class="cls-8" x="16.62" y="173.16" width="30.45" height="12.5" rx="1.22"/><rect class="cls-8" x="49.87" y="173.16" width="30.45" height="12.5" rx="1.22"/><rect class="cls-10" x="83.12" y="173.16" width="30.45" height="12.5" rx="1.22"/><rect class="cls-8" x="116.36" y="173.16" width="30.45" height="12.5" rx="1.22"/><rect class="cls-8" x="149.61" y="173.16" width="30.45" height="12.5" rx="1.22"/><rect class="cls-8" y="188.4" width="30.45" height="12.5" rx="1.22"/><rect class="cls-8" x="33.25" y="188.4" width="30.45" height="12.5" rx="1.22"/><rect class="cls-12" x="66.49" y="188.4" width="30.45" height="12.5" rx="1.22"/><rect class="cls-11" x="99.74" y="188.4" width="30.45" height="12.5" rx="1.22"/><rect class="cls-8" x="132.99" y="188.4" width="30.45" height="12.5" rx="1.22"/><rect class="cls-8" x="166.23" y="188.4" width="30.45" height="12.5" rx="1.22"/><rect class="cls-8" x="16.62" y="203.65" width="30.45" height="12.5" rx="1.22"/><rect class="cls-8" x="49.87" y="203.65" width="30.45" height="12.5" rx="1.22"/><rect class="cls-12" x="83.12" y="203.65" width="30.45" height="12.5" rx="1.22"/><rect class="cls-11" x="116.36" y="203.65" width="30.45" height="12.5" rx="1.22"/><rect class="cls-8" x="149.61" y="203.65" width="30.45" height="12.5" rx="1.22"/><rect class="cls-8" y="218.89" width="30.45" height="12.5" rx="1.22"/><rect class="cls-8" x="33.25" y="218.89" width="30.45" height="12.5" rx="1.22"/><rect class="cls-8" x="66.49" y="218.89" width="30.45" height="12.5" rx="1.22"/><rect class="cls-12" x="99.74" y="218.89" width="30.45" height="12.5" rx="1.22"/><rect class="cls-8" x="132.99" y="218.89" width="30.45" height="12.5" rx="1.22"/><rect class="cls-8" x="166.23" y="218.89" width="30.45" height="12.5" rx="1.22"/><rect class="cls-8" x="16.62" y="234.13" width="30.45" height="12.5" rx="1.22"/><rect class="cls-9" x="49.87" y="234.13" width="30.45" height="12.5" rx="1.22"/><rect class="cls-8" x="83.12" y="234.13" width="30.45" height="12.5" rx="1.22"/><rect class="cls-9" x="116.36" y="234.13" width="30.45" height="12.5" rx="1.22"/><rect class="cls-8" x="149.61" y="234.13" width="30.45" height="12.5" rx="1.22"/><rect class="cls-8" y="249.37" width="30.45" height="12.5" rx="1.22"/><rect class="cls-8" x="33.25" y="249.37" width="30.45" height="12.5" rx="1.22"/><rect class="cls-10" x="66.49" y="249.37" width="30.45" height="12.5" rx="1.22"/><rect class="cls-11" x="99.74" y="249.37" width="30.45" height="12.5" rx="1.22"/><rect class="cls-8" x="132.99" y="249.37" width="30.45" height="12.5" rx="1.22"/><rect class="cls-8" x="166.23" y="249.37" width="30.45" height="12.5" rx="1.22"/><rect class="cls-8" x="16.62" y="264.61" width="30.45" height="12.5" rx="1.22"/><rect class="cls-8" x="49.87" y="264.61" width="30.45" height="12.5" rx="1.22"/><rect class="cls-8" x="83.12" y="264.61" width="30.45" height="12.5" rx="1.22"/><rect class="cls-8" x="116.36" y="264.61" width="30.45" height="12.5" rx="1.22"/><rect class="cls-8" x="149.61" y="264.61" width="30.45" height="12.5" rx="1.22"/></g><polygon class="cls-5" points="202.34 264.18 152.51 300.76 152.51 0 202.34 36.58 202.34 264.18"/><rect class="cls-3" x="140.56" width="11.94" height="300.76"/><path class="cls-4" d="M162.77,138c-.58,0-1,1.65-1,3.69s.46,3.7,1,3.7h10.86V138Z"/><path class="cls-3" d="M192.13,147.66l-18.2-9.5a.43.43,0,0,0-.3-.15c-.57,0-1,1.65-1,3.69s.47,3.7,1,3.7l17.05,5.66a1.85,1.85,0,0,0,1.45-3.4Z"/><polygon class="cls-13" points="140.56 300.76 130.88 264.18 140.56 101.2 140.56 300.76"/></g></g></g></svg>