<svg
        xmlns="http://www.w3.org/2000/svg"
        xmlns:xlink="http://www.w3.org/1999/xlink"
        width="31px" height="41px">
    <path fill-rule="evenodd"  fill="rgb(26, 26, 26)"
          d="M30.478,35.734 L19.152,40.018 C18.235,37.823 15.396,37.660 12.884,36.264 C10.353,34.845 8.634,32.083 2.038,32.220 C-0.441,32.269 -0.323,30.302 0.701,29.200 C2.367,27.408 4.236,28.110 6.739,28.489 C8.889,28.818 11.007,28.216 10.865,27.062 C10.643,25.193 10.329,24.357 9.617,21.937 C9.048,20.012 7.968,16.541 6.986,13.224 C5.669,8.785 5.288,6.725 7.040,6.211 C8.928,5.663 10.011,8.332 10.992,12.033 C12.109,16.245 12.697,18.105 13.027,18.007 C13.606,17.842 12.813,16.039 14.330,15.595 C16.227,15.047 16.593,16.521 17.124,16.373 C17.655,16.214 17.476,14.721 18.988,14.281 C20.508,13.845 21.272,15.706 21.896,15.520 C22.517,15.338 22.505,14.666 23.440,14.400 C24.378,14.121 27.910,15.695 29.932,22.565 C32.469,31.203 29.612,32.808 30.478,35.734 ZM11.194,7.710 C11.265,7.396 11.310,7.074 11.310,6.739 C11.310,4.304 9.319,2.322 6.871,2.322 C4.423,2.322 2.431,4.302 2.431,6.739 C2.431,8.359 3.321,9.760 4.630,10.530 C4.829,11.421 5.094,12.353 5.370,13.282 C2.362,12.601 0.114,9.937 0.114,6.739 C0.114,3.024 3.137,0.015 6.871,0.015 C10.605,0.015 13.630,3.024 13.630,6.739 C13.630,8.251 13.109,9.631 12.263,10.753 C11.962,9.688 11.619,8.641 11.194,7.710 Z"/>
</svg>