<svg
        xmlns="http://www.w3.org/2000/svg"
        xmlns:xlink="http://www.w3.org/1999/xlink"
        width="24px" height="19px">
    <path fill-rule="evenodd"  fill="rgb(28, 78, 156)"
          d="M18.009,10.514 C19.286,9.615 20.836,8.544 22.661,7.300 C23.170,6.950 23.616,6.558 24.000,6.126 L24.000,16.549 L18.009,10.514 ZM21.710,5.856 C19.543,7.372 17.908,8.516 16.798,9.293 C16.188,9.720 15.734,10.038 15.443,10.242 C15.399,10.272 15.332,10.321 15.242,10.385 C15.146,10.455 15.024,10.544 14.873,10.653 C14.583,10.865 14.342,11.036 14.150,11.166 C13.958,11.296 13.726,11.443 13.453,11.605 C13.181,11.767 12.924,11.888 12.683,11.969 C12.442,12.050 12.219,12.090 12.014,12.090 L12.000,12.090 L11.987,12.090 C11.782,12.090 11.559,12.050 11.317,11.969 C11.076,11.888 10.820,11.767 10.547,11.605 C10.275,11.443 10.043,11.297 9.851,11.166 C9.659,11.036 9.418,10.865 9.127,10.653 C8.977,10.544 8.855,10.455 8.758,10.385 C8.668,10.321 8.601,10.272 8.558,10.242 C8.184,9.977 7.732,9.658 7.206,9.289 C6.590,8.856 5.874,8.355 5.049,7.779 C3.522,6.713 2.607,6.073 2.304,5.856 C1.750,5.479 1.228,4.959 0.737,4.298 C0.246,3.637 0.000,3.023 0.000,2.456 C0.000,1.755 0.185,1.170 0.556,0.702 C0.926,0.235 1.455,0.001 2.143,0.001 L21.857,0.001 C22.437,0.001 22.939,0.212 23.364,0.635 C23.788,1.058 24.000,1.566 24.000,2.160 C24.000,2.870 23.781,3.550 23.344,4.197 C22.907,4.844 22.362,5.398 21.710,5.856 ZM1.353,7.300 C3.249,8.599 4.794,9.668 5.993,10.511 L-0.000,16.549 L-0.000,6.126 C0.393,6.567 0.844,6.959 1.353,7.300 ZM8.009,11.955 C8.518,12.333 8.931,12.628 9.248,12.839 C9.564,13.051 9.986,13.266 10.513,13.487 C11.040,13.707 11.531,13.817 11.987,13.817 L12.000,13.817 L12.013,13.817 C12.469,13.817 12.960,13.707 13.487,13.487 C14.013,13.266 14.435,13.051 14.752,12.839 C15.069,12.628 15.482,12.333 15.991,11.955 C16.140,11.846 16.299,11.732 16.462,11.614 L23.261,18.465 C22.864,18.819 22.396,18.999 21.857,18.999 L2.143,18.999 C1.603,18.999 1.136,18.819 0.738,18.465 L7.539,11.613 C7.709,11.735 7.867,11.850 8.009,11.955 Z"/>
</svg>