<svg
        xmlns="http://www.w3.org/2000/svg"
        xmlns:xlink="http://www.w3.org/1999/xlink"
        width="18px" height="25px">
    <path fill-rule="evenodd"  fill="rgb(28, 78, 156)"
          d="M9.000,0.000 C4.037,0.000 -0.000,3.899 -0.000,8.692 C-0.000,14.639 8.054,23.371 8.397,23.740 C8.719,24.086 9.281,24.086 9.603,23.740 C9.946,23.371 18.000,14.639 18.000,8.692 C18.000,3.899 13.963,0.000 9.000,0.000 ZM9.000,13.065 C6.503,13.065 4.472,11.103 4.472,8.692 C4.472,6.280 6.503,4.319 9.000,4.319 C11.497,4.319 13.528,6.280 13.528,8.692 C13.528,11.103 11.497,13.065 9.000,13.065 Z"/>
</svg>