<?xml version="1.0" standalone="no"?>
<!DOCTYPE svg PUBLIC "-//W3C//DTD SVG 20010904//EN"
 "http://www.w3.org/TR/2001/REC-SVG-20010904/DTD/svg10.dtd">
<svg version="1.0" xmlns="http://www.w3.org/2000/svg"
 width="77.000000pt" height="66.000000pt" viewBox="0 0 77.000000 66.000000"
 preserveAspectRatio="xMidYMid meet">

<g transform="translate(0.000000,66.000000) scale(0.100000,-0.100000)"
fill="#000000" stroke="none">
<path d="M282 479 c-27 -24 -33 -36 -28 -55 9 -33 21 -30 32 8 8 26 16 34 39
38 36 6 46 35 13 37 -13 1 -37 -11 -56 -28z"/>
<path d="M425 470 c-46 -17 -51 -21 -58 -58 -6 -30 -3 -52 12 -91 10 -28 16
-51 12 -51 -13 0 -41 36 -41 53 0 9 -5 19 -12 23 -7 5 -9 2 -5 -9 10 -27 -33
-34 -52 -8 -11 15 -23 20 -34 15 -19 -7 -22 -20 -7 -29 5 -3 8 -19 6 -36 -2
-17 3 -36 10 -44 18 -18 18 -35 0 -35 -8 0 -18 12 -23 27 l-10 28 -31 -44
c-29 -40 -32 -50 -32 -121 l0 -77 69 -7 c75 -8 144 0 135 15 -14 23 -12 146 3
187 19 51 35 53 62 8 13 -21 37 -40 61 -50 49 -19 50 -19 50 -3 0 7 9 18 20
24 26 17 35 73 19 117 -15 41 -42 45 -47 8 -4 -28 -31 -41 -43 -21 -4 8 -14
14 -21 14 -7 0 -14 8 -16 18 -2 9 2 17 8 17 7 0 9 8 5 19 -7 24 23 37 39 17 6
-8 21 -17 33 -20 18 -6 22 -3 20 14 -1 11 -5 20 -10 20 -4 0 -7 8 -6 18 3 35
-1 52 -15 52 -7 0 -19 7 -26 15 -14 17 -10 18 -75 -5z"/>
<path d="M640 396 c0 -8 5 -18 10 -21 6 -3 10 1 10 9 0 8 -4 18 -10 21 -5 3
-10 -1 -10 -9z"/>
<path d="M150 275 c-7 -14 -10 -28 -6 -32 10 -10 50 33 42 46 -11 17 -21 13
-36 -14z"/>
<path d="M631 144 c0 -11 3 -14 6 -6 3 7 2 16 -1 19 -3 4 -6 -2 -5 -13z"/>
<path d="M660 135 c-7 -8 -8 -15 -2 -15 5 0 15 7 22 15 7 8 8 15 2 15 -5 0
-15 -7 -22 -15z"/>
</g>
</svg>
