<svg xmlns="http://www.w3.org/2000/svg" viewBox="0 0 45.11 45.21"><defs><style>.cls-1{fill:#1e1e1e;}.cls-2{fill:#5bc551;}</style></defs><title>destination</title><g id="Слой_2" data-name="Слой 2"><g id="Capa_1" data-name="Capa 1"><path class="cls-1" d="M29.62,28.92a5.53,5.53,0,0,1-7.85-4.25c-.08-.56-.15-1.1-.21-1.63A2.33,2.33,0,0,0,21,25.18c.57,1.79,2,5.19,0,5.93s-3.8,1.43-2.79,2.79c1.23,1.66,2.82,1,4.23,2.05.92.67.19,2.22.52,3.2A12.78,12.78,0,0,1,8.42,36.27C8.34,35,11,35,10.92,33.77c-.06-.64.51-2.31,3.72-2.66s2.24-3.45,1.8-4.52c-.75-1.8-3.85-2.31-6.13-1.41s-.66-2.44,1.24-6c.88-1.65.33-2.32-.52-2.57a12.71,12.71,0,0,1,6.25-1.88A4.56,4.56,0,0,0,17.85,16c1.1,1.49-2.18,3.12-1.67,3.61s2.67.17,3.46-.66a4.63,4.63,0,0,1,1.41-1A51.44,51.44,0,0,1,21,10.08,17.72,17.72,0,1,0,35.43,27.49q0-.75-.06-1.48Q32.78,27.43,29.62,28.92Z"/><path class="cls-2" d="M39.5,1.29A10.68,10.68,0,0,0,25,5.6c-2,3.72-1,13.46-.32,18.67a2.58,2.58,0,0,0,3.66,2C33.11,24,41.8,19.5,43.82,15.77A10.69,10.69,0,0,0,39.5,1.29ZM38.43,12.62a4.44,4.44,0,1,1-1.79-6A4.44,4.44,0,0,1,38.43,12.62Z"/></g></g></svg>