<svg xmlns="http://www.w3.org/2000/svg" viewBox="0 0 48.51 48.51"><defs><style>.cls-1{fill:#ffc338;}.cls-2{fill:#faf9fa;}.cls-3{fill:#1f3135;}</style></defs><title>messaging</title><g id="Слой_2" data-name="Слой 2"><g id="Слой_1-2" data-name="Слой 1"><path class="cls-1" d="M33.35,0H6.06A6.06,6.06,0,0,0,0,6.06V24.25a6.06,6.06,0,0,0,6.06,6.07V37.9a1.52,1.52,0,0,0,2.5,1.15l10.19-8.73h14.6a6.06,6.06,0,0,0,6.06-6.07V6.06A6.06,6.06,0,0,0,33.35,0Z"/><path class="cls-2" d="M28.8,9.1H10.61a1.52,1.52,0,0,0,0,3H28.8a1.52,1.52,0,1,0,0-3Z"/><path class="cls-2" d="M22.74,15.16H10.61a1.52,1.52,0,0,0,0,3H22.74a1.52,1.52,0,0,0,0-3Z"/><path class="cls-3" d="M6.06,3a3,3,0,0,0-3,3V24.25a3,3,0,0,0,3,3H7.58A1.51,1.51,0,0,1,9.1,28.8v5.8l8.1-7a1.46,1.46,0,0,1,1-.36H33.35a3,3,0,0,0,3-3V6.06a3,3,0,0,0-3-3ZM7.58,39.41A1.52,1.52,0,0,1,6.06,37.9V30.32A6.06,6.06,0,0,1,0,24.25V6.06A6.06,6.06,0,0,1,6.06,0H33.35a6.06,6.06,0,0,1,6.06,6.06V24.25a6.06,6.06,0,0,1-6.06,6.07H18.75L8.56,39.05a1.52,1.52,0,0,1-1,.36Z"/><path class="cls-3" d="M40.93,48.51a1.52,1.52,0,0,1-1-.37L29.76,39.41H16.89a1.52,1.52,0,1,1,0-3H30.32a1.48,1.48,0,0,1,1,.37l8.11,7V37.9a1.52,1.52,0,0,1,1.52-1.52h1.51a3,3,0,0,0,3-3V15.16a3,3,0,0,0-2-2.85,1.51,1.51,0,1,1,.91-2.89l.07,0a6,6,0,0,1,4.06,5.71V33.35a6.06,6.06,0,0,1-6.07,6.06V47a1.51,1.51,0,0,1-1.51,1.52Z"/><path class="cls-3" d="M28.8,12.13H10.61a1.52,1.52,0,0,1,0-3H28.8a1.52,1.52,0,1,1,0,3Z"/><path class="cls-3" d="M22.74,18.19H10.61a1.52,1.52,0,0,1,0-3H22.74a1.52,1.52,0,0,1,0,3Z"/></g></g></svg>