<svg xmlns="http://www.w3.org/2000/svg" xmlns:xlink="http://www.w3.org/1999/xlink" viewBox="0 0 48 48.01"><defs><style>.cls-1{fill:none;}.cls-2{clip-path:url(#clip-path);}.cls-3{fill:#ffc338;}.cls-4{fill:#1f3135;}.cls-5{fill:#009245;}</style><clipPath id="clip-path" transform="translate(0 0)"><rect class="cls-1" width="48" height="48.01"/></clipPath></defs><title>24_hours_phone</title><g id="Слой_2" data-name="Слой 2"><g id="Слой_1-2" data-name="Слой 1"><g class="cls-2"><path class="cls-3" d="M15.12,6.37a27.64,27.64,0,0,0-4.89,9.39L3.06,13.48a35.81,35.81,0,0,1,6.33-12l5.73,4.86Z" transform="translate(0 0)"/><path class="cls-4" d="M5,12.51l4.3,1.37a29,29,0,0,1,3.81-7.27L9.62,3.67A34,34,0,0,0,5,12.51Zm5.27,4.75a1.69,1.69,0,0,1-.45-.07L2.61,14.91a1.5,1.5,0,0,1-1-1.87A37.21,37.21,0,0,1,8.22.57a1.48,1.48,0,0,1,1-.56,1.46,1.46,0,0,1,1.11.35l5.73,4.86a1.49,1.49,0,0,1,.21,2.07,26.33,26.33,0,0,0-4.63,8.89,1.49,1.49,0,0,1-.73.9,1.47,1.47,0,0,1-.71.18Z" transform="translate(0 0)"/></g><path class="cls-3" d="M15.12,41.65,9.39,46.51a35.9,35.9,0,0,1-6.33-12l7.17-2.28a27.74,27.74,0,0,0,4.89,9.39Z" transform="translate(0 0)"/><g class="cls-2"><path class="cls-4" d="M5,35.51a34,34,0,0,0,4.66,8.83l3.45-2.93a29.23,29.23,0,0,1-3.81-7.28L5,35.51ZM9.39,48H9.25a1.5,1.5,0,0,1-1-.56A37.06,37.06,0,0,1,1.62,35a1.5,1.5,0,0,1,1-1.87l7.17-2.28a1.51,1.51,0,0,1,1.16.11,1.46,1.46,0,0,1,.73.9,26.28,26.28,0,0,0,4.63,8.88,1.51,1.51,0,0,1-.21,2.08l-5.73,4.86a1.53,1.53,0,0,1-1,.35Z" transform="translate(0 0)"/><path class="cls-4" d="M3.06,36A1.49,1.49,0,0,1,1.63,35,37.78,37.78,0,0,1,1.63,13a1.5,1.5,0,0,1,2.88.84l0,0a34.85,34.85,0,0,0,0,20.18A1.49,1.49,0,0,1,3.5,36a1.31,1.31,0,0,1-.44.07Z" transform="translate(0 0)"/></g><path class="cls-4" d="M27,45a20,20,0,0,1-4.87-.6,1.5,1.5,0,0,1,.74-2.91A17.43,17.43,0,0,0,27,42,18,18,0,1,0,27,6a16.91,16.91,0,0,0-4.13.49,1.5,1.5,0,0,1-.74-2.91A20,20,0,0,1,27,3a21,21,0,0,1,0,42Z" transform="translate(0 0)"/><path class="cls-5" d="M25.5,32h-6a1.5,1.5,0,0,1-1.5-1.5v-3A4.49,4.49,0,0,1,22.5,23a1.5,1.5,0,0,0,0-3h-3a1.5,1.5,0,0,1,0-3h3a4.5,4.5,0,0,1,0,9,1.5,1.5,0,0,0-1.5,1.5V29h4.5a1.5,1.5,0,0,1,0,3Z" transform="translate(0 0)"/><path class="cls-5" d="M36.5,32a1.5,1.5,0,0,1-1.5-1.5v-12a1.5,1.5,0,0,1,3,0v12A1.5,1.5,0,0,1,36.5,32Z" transform="translate(0 0)"/><path class="cls-5" d="M36.5,26h-6a1.49,1.49,0,0,1-1.45-1.87l1.5-6a1.5,1.5,0,1,1,2.92.66s0,.05,0,.07l-1,4.14H36.5a1.5,1.5,0,0,1,0,3Z" transform="translate(0 0)"/></g></g></svg>