<svg
        xmlns="http://www.w3.org/2000/svg"
        xmlns:xlink="http://www.w3.org/1999/xlink"
        width="24px" height="24px">
    <path fill-rule="evenodd"  fill="#f2c810"
          d="M22.875,13.750 L13.500,13.750 L13.500,22.875 C13.500,23.496 12.996,24.000 12.375,24.000 C11.754,24.000 11.250,23.496 11.250,22.875 L11.250,13.750 L1.125,13.750 C0.504,13.750 -0.000,13.246 -0.000,12.625 C-0.000,12.004 0.504,11.500 1.125,11.500 L11.250,11.500 L11.250,1.125 C11.250,0.504 11.754,-0.000 12.375,-0.000 C12.996,-0.000 13.500,0.504 13.500,1.125 L13.500,11.500 L22.875,11.500 C23.496,11.500 24.000,12.004 24.000,12.625 C24.000,13.246 23.496,13.750 22.875,13.750 Z"/>
</svg>