<svg xmlns="http://www.w3.org/2000/svg" viewBox="0 0 52.94 52.94"><defs><style>.cls-1{fill:#ffc338;}.cls-2{fill:#fff;}.cls-3{fill:#123872;}</style></defs><title>success</title><g id="Слой_2" data-name="Слой 2"><g id="Слой_1-2" data-name="Слой 1"><path class="cls-1" d="M26.47,0A26.47,26.47,0,1,0,52.94,26.47,26.47,26.47,0,0,0,26.47,0Z"/><path class="cls-2" d="M26.47,48.81A22.34,22.34,0,1,1,48.81,26.47,22.34,22.34,0,0,1,26.47,48.81Z"/><path class="cls-1" d="M26.47,13.24A13.24,13.24,0,1,0,39.71,26.47,13.23,13.23,0,0,0,26.47,13.24Z"/><polygon class="cls-3" points="24.82 33.09 19.85 28.13 22.17 25.48 24.82 28.13 32.26 19.85 34.74 22.5 24.82 33.09"/></g></g></svg>