<?xml version="1.0" encoding="utf-8"?>
<!-- Generator: Adobe Illustrator 19.1.1, SVG Export Plug-In . SVG Version: 6.00 Build 0)  -->
<svg version="1.1" id="Слой_1" xmlns="http://www.w3.org/2000/svg" xmlns:xlink="http://www.w3.org/1999/xlink" x="0px" y="0px"
	 viewBox="0 0 119.1 102" style="enable-background:new 0 0 119.1 102;" xml:space="preserve">
<style type="text/css">
	.st0{fill-rule:evenodd;clip-rule:evenodd;fill:#8B6B2E;}
	.st1{fill-rule:evenodd;clip-rule:evenodd;fill:#E5C130;}
	.st2{fill-rule:evenodd;clip-rule:evenodd;fill:#B17B46;}
	.st3{fill-rule:evenodd;clip-rule:evenodd;fill:#EBB56B;}
	.st4{fill-rule:evenodd;clip-rule:evenodd;fill:#C69E2D;}
	.st5{fill:#272626;}
	.st6{fill:#FFFFFF;}
	.st7{fill-rule:evenodd;clip-rule:evenodd;fill:#272626;}
	.st8{fill-rule:evenodd;clip-rule:evenodd;fill:#FAD197;}
</style>
<path class="st0" d="M20.3,28.9c-3.1,1.5-6,3.8-8.5,6.7c-0.4,0.5-0.9,0.8-1.4,1c-1.9,0.5-4.3,0.4-5.4,1.1c-0.9,0.3-1.8,0.7-1.9,1.4
	c0,0.2,0,0.4,0.1,0.5C3.2,41,5.4,41.7,6.4,42c3.7,1,5.1,0.4,9.1,1.9c1.9,0.7,4.6,3.5,7.2,4.7c1.6,0.7,3.5,2.6,5.2,3.3
	c3.5,1.5,4.9,1.1,7.6,1.9c4,1.2,7.5,3.1,12.7,3.7c5.2,0.6,7.6-1.7,12.3-1.4c4.6,0.3,7.8,2.8,11.8,2.9c3.4,0.1,6.8-2.3,10.6-3.3
	c7.6-2.1,14,1.3,19.3-0.8c4.4-1.7,10.2-5.7,10.7-9.2c0.2-1.4-0.9-3.1-2.6-5c-0.3-0.4-0.3-1.3,0-2c0.4-1,1.1-1.8,1.4-2.3
	c0.5-0.8,0.7-1,1-1.9c1.1-2.9-2-5.6-4.3-6.4c-23.2-5.5-50.7-6.4-74.4-2.5C28.9,26.4,24.1,27.5,20.3,28.9L20.3,28.9z"/>
<path class="st1" d="M111.8,36.4c0.5-0.8,0.7-1,1-1.9c1.1-2.9-2-5.6-4.3-6.4c-0.1,0.5-0.3,1.4-0.5,1.9c-0.3,0.8-0.6,1.5-0.8,1.9
	c-0.3,0.7-0.6,1.4-1.1,2.3c0.2,0.2,1.9,2.3,1.1,6.5c-0.1,0.5-0.5,1.6-0.5,1.7c1.1,1.2,0.1,3.5-1.4,4.6c-3.1,2.3-7.9,2.3-13.1,3.4
	c-2.6,0.5-4.3,2.1-5.9,2.5c-7.5,1.9-6.5,1.1-12.6,0.5c-1.7-0.2-3.9-0.3-7-0.4c-2.6-0.1-5.7,0.4-8.6,0.3c-3.9-0.1-7.4-1.1-10.5-1.3
	l-0.3,0l-0.3,0l-0.3,0l-0.3,0l-0.3,0l0,0l-0.2,0l0,0l-0.2,0l-0.2,0l-0.2,0l-0.2,0l-0.2,0h0l-0.2,0l-0.2,0l-0.2,0l0,0l-0.2,0l0,0
	l-0.2,0l-0.2,0l0,0l-0.2,0l-0.2,0l-0.2,0l-0.2,0l0,0l-0.2,0l0,0l-0.2,0l0,0l-0.2,0l0,0l-0.2,0l0,0l-0.2,0l-0.2,0l0,0l-0.2,0l-0.2,0
	l-0.2,0l0,0l-0.2,0l-0.2,0l-0.2,0l0,0l-0.2,0l0,0l-0.2,0l0,0l-0.2,0l-0.2,0v0l-0.2,0l0,0l-0.2,0l-0.2,0l-0.2,0v0l-0.2,0l-0.2,0h0
	l-0.2,0l0,0l-0.2,0l0,0l-0.2,0c-0.1,0-0.1,0-0.2,0l-0.2,0l-0.2,0l0,0c-0.1,0-0.1,0-0.2,0c-0.1,0-0.1,0-0.2,0l0,0c-0.1,0-0.1,0-0.2,0
	c-0.1,0-0.1,0-0.2,0c-0.1,0-0.1,0-0.2,0c-0.1,0-0.1,0-0.2,0c-0.1,0-0.1,0-0.2,0c0,0-0.1,0-0.1,0c-0.1,0-0.1,0-0.2,0c0,0-0.1,0-0.1,0
	l0,0c0,0-0.1,0-0.1-0.1l0,0c-0.1,0-0.1,0-0.2-0.1l0,0c0,0-0.1,0-0.1-0.1c0,0-0.1,0-0.1-0.1c-0.1,0-0.1,0-0.2-0.1l-0.1,0l0,0
	c-1.1-0.5-3.3-1.4-5.7-2.7c-1.6-0.8-2.2-0.8-4.1-1.4l0,0c-0.4-0.2-0.9-0.4-1.2-0.6c-3-2.2-4.1-3.8-5.6-5c-0.7-0.6-2.6-1-4.9-1.3
	c1.5-0.4,3.1-1.1,4.1-1.4c0.7-0.2,1.2-0.6,1.6-0.9c-0.4-1.4-0.3-2.9,0.5-4.5c0.3-0.6,0.7-1.2,1.3-1.7c-0.5-0.7-0.9-1.4-1.1-2.2
	c-3.1,1.5-6,3.8-8.5,6.7c-1.2,1.4-2.6,1.4-4.2,1.6c-1,0.2-4.2,0.5-4.4,2c0,0.2,0,0.4,0.1,0.5C3.2,41,5.4,41.7,6.4,42
	c2.6,0.7,6.3,0.8,6.6,0.8c1.7,0.3,1.4,0.7,2.5,1.1c1.9,0.7,4.6,3.5,7.2,4.7c1.6,0.7,3.5,2.6,5.2,3.3c3.5,1.5,4.9,1.1,7.6,1.9
	c4,1.2,7.5,3.1,12.7,3.7c5.2,0.6,7.6-1.7,12.3-1.4c4.6,0.3,7.8,2.8,11.8,2.9c3.4,0.1,6.8-2.3,10.6-3.3c7.6-2.1,14,1.3,19.3-0.8
	c4.4-1.7,10.2-5.7,10.7-9.2c0.2-1.4-0.9-3.1-2.6-5c-0.3-0.4-0.3-1.3,0-2C110.8,37.7,111.5,36.9,111.8,36.4L111.8,36.4z"/>
<path class="st2" d="M23.7,34.4c-0.6-0.9-1-1.8-1.6-2.5c-1.5-1.8-2-3.1-2-4.5c0-2,1.7-3.7,4.1-4.9c2-1,0.9-5.1,3.1-6.9
	c0.6-0.5,2-1,3.1-1c1.5,0,2.4-0.7,2.6-1.9c0.5-2.3,1.7-3.7,3.4-4.5c2.1-1,5.1-1.4,8.6,0.9c0.7-3.4,6.1-6,10.2-5.7
	c5.1,0.3,8,3.3,8.8,3.9c1-2.6,3.3-4.8,7.2-4.8c2.3,0,4.9,0.6,6.5,2C78.8,5.4,78.9,5.8,80,7c1.9-1.1,4.9-1.7,7.4-1
	c2.2,0.6,4.2,2.3,4.8,4.2c0.4,1.2,0.4,2.9,0.7,4.7c2.2-1.2,6.8-1.6,8.5,0.8c1.5,2.2-1.2,2.9-0.1,4.9c0.4,0.7,1.1,1.4,2.3,2
	c1.2,0.7,2.5,1,3.7,2.5c1.9,2.5-0.9,8.2-2.3,9.5C91.4,46.7,60.4,48.6,41.4,45C27.7,42.4,28.9,42.3,23.7,34.4L23.7,34.4z"/>
<path class="st3" d="M97.7,28.6c0.2-0.3,3.2-3.8,0.8-8.2c-0.6-1-2.9-2.5-5.3-2.7c-1.4-0.1-3.8,0.5-4.5,1.4c0-0.7-0.1-1.5-0.3-2.3
	c-0.7-3.1-4-4.6-6.3-4.9c-6-0.7-6.5,3.2-9.1,3.3c-2.6,0.2-5.5-1.5-8.8-3.4c-3.5-2.1-8.6-2.5-12.4-1.3c-2.9,0.9-4.8,3-5.3,6
	c-2.4-0.8-4.6-0.3-6.1,0.9c-0.9,0.8-1.4,1.9-2.1,3.2c-0.9-0.4-4.4-1.8-7.8,0.1c-2,1.1-3,3.8-2.7,8.7c-3.1-1-6.6,0.9-7.8,3.3
	c-2.1,4.4,1,8.5,4.7,10.5c0.9,0.5,0.7,1.7,1,3.3c1.9,0.6,2.5,0.6,4.1,1.4c2.4,1.2,4.6,2.2,5.8,2.7c3.2,1.3,6.2,0.8,12,1.2
	c3.1,0.2,6.6,1.2,10.5,1.3c2.9,0.1,6-0.3,8.6-0.3c3.1,0.1,5.4,0.2,7,0.4c6.1,0.6,5.1,1.4,12.6-0.5c0.1,0,6.1-3,6.4-3.2
	c0.9-0.7,2.4-4,3.9-4.7c2-1,3.4-0.5,5-0.4c2.3,0.1,3.3-0.3,4.5-2.3c1.5-2.5,1.1-7.5-2-8.9c-1.1-0.5-3.1-0.8-4.5-1.7
	C98.9,31.1,98.4,30.2,97.7,28.6L97.7,28.6z"/>
<path class="st4" d="M14.3,43.2c4.1,1,6.4,3.6,10.3,6.9c2.5,2.1,5.8,2.5,8.6,3.1c4.9,1,11.4,4.6,16.8,4.5c2.3-0.1,5.4-1.7,10.1-1.7
	c4.5,0,8.7,2.8,11.4,2.9c5.1,0.3,7.7-2,10.5-2.9c2.9-1,5.7-1.1,9.9-0.8c2.3,0.2,4.8,0.7,7.5,0.3c2.7-0.3,8-2.5,11.1-5.1
	c1.6-1.4,2.3-2.8,2.4-4.2c0.1-1.4-0.7-3.2-2.2-5.4c-0.6-0.8-0.8-1-0.6-1.4c0.5-1.1,2.4-3.5,2.9-5.5c0.4-1.5-0.4-3-0.3-2.9
	c1.6,1.5,1.9,3.9,1.1,5.9c-0.3,0.8-0.7,1.7-0.5,2.4c1,3.7,2.7,4,2.7,6.8c0,2.3-0.9,4.5-2.4,5.9c0.1,0.8,0.4,3.1,0.8,5.6
	c-0.1,0.9-0.6,1.7-0.7,3.3c-0.1,1.5,0.4,2.6,0,4.6c-1.2,5.8-5.3,6.6-4.4,13.7c-2.4,7.5-8,7.3-13.8,11.3c-2,1.4-3.9,2.6-6.2,4.2
	c-0.8,0.5-1.7-0.3-2.8,0.2c-1.6,0.6-4,2.3-5.9,2.7c-1.9,0.4-4.7,0.4-6.6,0.3c-1,0.5-2.3,1.2-3.7,1.4c-4.3,0.6-9.4-0.6-12.8-1.5
	c-4.7-1.3-9.5-2.8-14.6-3.2c-3-0.2-5.8-1.2-7.9-2.8c-2.3-1.7-4.7-3.2-5.8-5.5c-0.2-0.5-0.1-1-0.9-1.6c-0.7-0.6-2-1-2.7-1.6
	c-1.6-1.6-2.4-3.3-4.4-5.7c-3.6-4.4,0.1-3.9-0.7-8.2c-0.4-2.3-3.9-4.7-4.2-6.8c-0.3-2.7-3.6-12.5-6.4-15.6c-2.9-1.7-5.7-0.9-7.1-2.8
	c-0.4-0.6,0.1-3.8,0.3-4.1c0.2,0.5,0.6,1.4,1.5,1.8C6.1,42,12,42.6,14.3,43.2L14.3,43.2z"/>
<path class="st0" d="M83,92.2c4-0.5,7.4-3.7,8.8-4.7c1.5-1,4.8-2.1,6.6-3.5c3.4-2.6,3.2-7.9,5.5-11.5c1.9-3.1,1.6-7.1,1.3-9.3
	c-0.3-2.5-2.5-1.4-4.9-2c-1.5-0.4-2.8-0.5-3.8-1.5c2.6-0.1,5,0.2,7.2-0.4c3.1-0.9,5.7-1.7,8.3-4.4c0,0.2,0.4,5.6,0.3,6.9
	c-0.1,1.4-0.1,1.7-0.2,3.2c-0.2,2-1.1,3.3-1.9,4.5c-2.5,3.6-2.5,5.6-2.6,9.9c-1.8,3.8-3.7,5.5-6.1,6.4c-2.3,0.6-5.3,2.4-7.2,3.7
	c-2.8,2-4.1,3.1-5.5,3.9c-0.6,0.4-1.6,0.3-2.4,0.4c-1.7,0.2-3.6,2-6.4,2.7c-1.2,0.3-2.5,0.4-3.7,0.4l0,0c-1.1,0-2.1,0-2.7,0
	c-1.5,0-1.1,1.6-6.5,1.3c-6.6-0.4-8.3-1.1-14.4-2.9c-2.2-0.5-4.5-1.2-6.6-1.5c-1.5-0.2-3-0.3-4.5-0.5c-3.8-0.6-6.2-2.4-9-4.7
	c-2.9-2.3-2.2-4-3.2-5.1c-0.5-0.6-1.7-0.7-2.9-1.5c-1-0.6-2.4-2.8-3.7-4.8c-0.6-0.9-0.7-1.1-1.2-1.8c-0.3-0.4-0.5-0.9-0.2-1.2
	c1.6-2.1,1.1-5.5,0.6-6.9c-0.4-1-2.8-3.9-3.9-4.6c-0.5-0.9-0.6-3-1.3-5.4c-0.8-2.6-2-4.9-3.1-6.8c3.4,1.1,5.6,2.8,9.9,5.4
	c2.6,1.6,6.1,3.1,11.3,4c1.2,0.2,7.6,0.6,10.9,1.5c-4.3,0.8-9.7,1.2-12.5,0.5c-1.5-0.4-6.5-1-6.8,1.3c-0.2,1.4-1.1,6.4,1.8,7.2
	c0.9,5.2,5.7,9.5,6.7,10.1c4.4,2.3,2.5,4.1,5,6.7c0.7,0.7,3.3,2.7,8.4,3.8c4.6,1,6.6,2.7,10.4,3.4c3.2,0.6,3.8,0.4,6.6-0.7
	c2-0.7,3.9-1.2,5.6,1.1c0.2,0.3,1.7-0.3,2.1-0.5c1.7-0.9,5.8-0.3,7.3-1.2C81.2,92.7,81.1,92.4,83,92.2L83,92.2z M67.6,63.2
	c-1.9-0.9-4.1-1.6-6.5-1.7c-1.5,0-4.2,0.5-6.9,1.8c-2.7,1.3-4.2,2.7-5.3,4.9c-1,1.8-1.3,3.1-1.9,3.9c-0.3,0.4-0.9,0.9-1.6,1.2
	c-0.7,0.3-1.4,0.3-1.9-0.4c-0.2-0.3-0.2-0.6-0.2-1c0.1-0.6,0.4-1.4,0.8-2.2c0.5-1.2-0.4-1.1,0.8-1.8c0.9-0.5-0.3-2,1.8-3.7
	c2.1-1.7,0-1.3,3.9-2.7c2.4-0.9,3.1-0.4,3.9-0.1c0.6,0.2,1.3,0,2.1-0.4c2.3-1.2,2.4-0.4,3.6-0.4c2.3-0.1,3.9,0,4.9,0.7
	C65.4,61.5,67.5,62.8,67.6,63.2L67.6,63.2z M93.9,60.4c-1-0.1-1.9-0.1-2.6-0.1c-2.5,0.1-4.3,0.4-5.6,0.7c-1.5,0.3-3.3,0.9-4.5,1.6
	c-0.8,0.5-1.4,1-2,1.6c-0.6,0.6-1.5,1.9-2,3.7c-0.4-0.2-1.8-1.2-1.4-2.6c0.5-2,0.8-2.1,2.8-2.7c0.4-0.1,0.7-1,2.3-2
	c0.4-0.3,1-0.7,1.7-0.9c2-0.7,6.6-0.9,8.6-0.6C92.2,59.4,93.6,59.7,93.9,60.4L93.9,60.4z M96.2,67.2c2.3,2.5,3.1,5.2,2.8,8.3
	c-0.2,2.2-0.8,4.7-2.6,6.7c-1.4,1.6-3.2,3-5.6,3.4C88.7,86,87,85.7,85.2,85c-1.8-0.7-3.5-1.9-4.6-3.4c-2.5-3.6-2.8-7.4-2.2-10.2
	c0.3-1.3,0.9-2.7,1.8-3.9c1.5-1.9,3.7-3.5,6.1-3.8C90.2,63.1,93.3,64,96.2,67.2L96.2,67.2z M53.7,68.7c-1.9,1.7-3.4,3.8-4.2,6.2
	c-1.2,3.5-1.2,7.6,0.8,10.5c1.3,1.8,3.7,3.1,6.1,3.7c2.3,0.6,4.5,0.5,6.6-0.1c2.1-0.6,4-1.7,5.4-3.3c2.7-3,4-6.5,3.9-9.7
	c0-3-1.2-5.7-3.6-7.7C64.8,64.9,57.8,65,53.7,68.7L53.7,68.7z"/>
<path class="st5" d="M73.2,89.2c-0.8-0.2-1.5-0.5-2.1-0.9c0,0.1,0,0.2-0.1,0.3c0,0.1,0,0.2,0,0.2c0,0.1,0,0.1,0,0.2
	c0,0-0.1,0.1-0.1,0.1l0,0c0,0-0.1,0-0.1,0c-0.1,0-0.2-0.1-0.2-0.2l0,0c-0.1-0.2-0.1-0.2-0.1-0.4c0,0,0-0.1,0-0.2
	c0-0.2,0-0.5,0.1-0.8c0.1-0.3,0.2-0.5,0.3-0.7c0-0.1,0.1-0.1,0.2-0.2c0.1-0.1,0.2-0.2,0.4-0.2c0.1-0.1,0.3-0.1,0.4,0l0,0
	c0,0,0,0,0,0l0,0l0,0l0,0c0.1,0.1,0.1,0.2,0.1,0.3c0,0.1-0.1,0.2-0.2,0.3l0,0l0,0l0,0c-0.1,0.1-0.2,0.1-0.3,0.2
	c-0.1,0.1-0.1,0.1-0.2,0.2c0,0,0,0,0,0c0.2,0.1,0.4,0.3,0.6,0.4c0.3,0.2,0.6,0.3,1,0.4c0.5,0.1,1,0.2,1.6,0.2c0.6,0,1.1,0,1.5,0
	c0.5,0,1.3-0.3,1.9-0.6c0.6-0.3,1.1-0.7,1.5-1.2c0.1-0.1,0.1-0.2,0.2-0.3c0-0.1,0.1-0.2,0.1-0.3c-0.1-0.1-0.1-0.2-0.1-0.3
	c0-0.1,0-0.2,0.1-0.3l0,0c0,0,0,0,0,0c0.1-0.1,0.2-0.1,0.4,0c0.1,0,0.3,0.1,0.4,0.2l0,0c0.1,0.1,0.1,0.1,0.2,0.1
	c0.2,0.2,0.3,0.4,0.4,0.7c0.1,0.2,0.1,0.5,0.1,0.8c0,0.1,0,0.1,0,0.2l0,0c0,0.1,0,0.2-0.1,0.4l0,0c0,0-0.1,0.2-0.2,0.2h0
	c0,0-0.1,0-0.1,0c0,0-0.1,0-0.1-0.1c0,0,0-0.1,0-0.2c0-0.1,0-0.2-0.1-0.4c0-0.1,0-0.1,0-0.2c0-0.1-0.1-0.3-0.1-0.4v0
	c0-0.1-0.1-0.2-0.2-0.3c0,0,0,0-0.1-0.1c-0.4,0.7-1,1.3-1.7,1.8c-0.7,0.5-1.6,0.8-2.7,0.9C74.9,89.5,74,89.4,73.2,89.2L73.2,89.2z"
	/>
<path class="st5" d="M97.3,72.3c0.3,1.5,0.3,3.1,0,4.6c-0.7,3.5-3.2,6.6-7,7.3c-3.6,0.6-7.1-0.9-9.2-3.9c-3.2-4.5-3.1-11.2,2-14.4
	c1.4-0.9,3.1-1.4,4.8-1.3C92.1,64.7,96.3,67.8,97.3,72.3L97.3,72.3z M55.5,69.1c1.7-1.3,3.8-2.1,6.1-2.2c1.2,0,2.4,0.1,3.5,0.5
	c1.1,0.4,2.2,0.9,3.1,1.6c1.1,0.8,1.8,1.8,2.3,2.9c0.5,1.1,0.7,2.2,0.7,3.4c0,1.5-0.2,3.1-0.8,4.6c-1.7,4.5-5.9,7.9-10.8,7.9
	c-3.4,0-6.7-1.7-8.3-5C49.3,78.4,51.8,71.9,55.5,69.1L55.5,69.1z"/>
<path class="st6" d="M52.4,75L52.4,75c-1,2.7-0.8,5.1,0,7c0.3,0.5,0.6,1.1,0.9,1.5c1.6,2,4,2.9,6.5,3c1,0,2.1-0.1,3.2-0.5
	c0.8-0.2,1.6-0.6,2.4-1.1c0.7-0.4,1.3-0.9,1.9-1.5c1.1-1.2,1.8-2.5,2.3-3.8c0.5-1.4,0.8-2.9,0.7-4.3c0-1.1-0.2-2.1-0.6-3.1
	c-0.4-0.9-1.1-1.8-2-2.5c-0.8-0.6-1.8-1.1-2.8-1.4c-1-0.3-2.1-0.5-3.2-0.5c-2.1,0-4,0.8-5.6,2C54.4,71.1,53.1,72.9,52.4,75L52.4,75z
	 M96.4,72.5c-0.5-2.3-1.8-4.1-3.6-5.4c-1.1-0.7-2.4-1.3-3.7-1.5c-1.9-0.4-3.9,0.1-5.5,1.1c-4.6,2.8-4.5,9-1.7,13.1
	c0.9,1.2,2.2,2.1,3.6,2.7c2.7,1,5.8,0.8,8-1.2C95.7,79.1,97,75.6,96.4,72.5L96.4,72.5z"/>
<path class="st0" d="M89.8,73c0.3,1.5-0.5,2.6-1.7,2.9c-1.9,0.5-3.5-1.2-3.2-3.1c0.2-1.3,1.4-2,2.7-1.9C88.7,71,89.6,71.8,89.8,73
	L89.8,73z M61.5,75.6c-0.5,1.5,0.1,2.6,1.2,3c1.9,0.7,3.7-0.9,3.7-2.9c0-1.3-1.1-2.1-2.4-2.1C62.9,73.7,61.9,74.5,61.5,75.6
	L61.5,75.6z"/>
<path class="st7" d="M88.5,73.2c0.1,0.7-0.2,1.2-0.8,1.4c-0.9,0.3-1.7-0.6-1.5-1.5c0.1-0.6,0.7-1,1.3-0.9
	C88,72.3,88.4,72.7,88.5,73.2L88.5,73.2z M62.8,75.9c-0.2,0.7,0.1,1.2,0.6,1.4c0.9,0.3,1.8-0.4,1.7-1.4c0-0.6-0.5-1-1.1-1
	C63.4,75,63,75.4,62.8,75.9L62.8,75.9z"/>
<path class="st8" d="M47.6,38.5c0.1,1.3,1.1,4.1,4.1,3.6c-1.9-1.3-1.6-2.8-1.4-3.7c0.6-2.7,4-3.2,6.3-2.4c1.9,0.6,2.7,2.3,3.8,2.8
	c-1.1-3.8-4.4-5.6-7.1-5.5c-1.7,0.1-3.3,0.7-4.4,1.7C48,36,47.5,37.1,47.6,38.5L47.6,38.5z M51.8,20.9c1.5-0.1,3.4-1.1,5.1-1
	c1.5,0.1,2.1,1.1,2,2.3c-0.2,1.8-1.9,3.8-4.3,3.2c-1-0.2-3-0.4-4.9-0.8c0.5,0.5,1.2,1.2,1.8,2.4c0.5,0.9,0.5,1.7,1.4,2.4
	c0.7,0.6,2.5,0.6,4.4,1c1.4,0.3,2.7,1.4,3.8,1.5c1.1,0.1,1.4-0.7,1.2-1.4c-0.4-1.3-2.1-2-2.3-3.6c-0.1-0.7-0.4-1.8-0.1-3.1
	c0.2-0.8,1.1-2.3,1.2-3.7c0.1-1-0.3-1.7-0.8-2.2c-1.6-1.5-3.2-1-4.9-0.1c-1.4,0.8-3.6,2.6-4.3,0.1c-0.8-2.6,0.8-4.2,3.1-4.9
	c3.2-1,6.2,0,9.1,1.2c1.6,0.7,3.4,1.5,5.4,2c-0.8-0.5-3.9-3-9-4.3c-2.6-0.7-5.7-0.6-7.6,0.1l0,0c-1.9,0.7-3.6,2.7-3.7,4.9
	C48,19.3,49.3,21.1,51.8,20.9L51.8,20.9z M45,29.6c1.6,2.3-0.7,3.9-0.8,6c-0.1,1,0,1.1,0.3,2.4c0.5-1.6,1.1-2.8,1.6-3.7
	c1.1-1.9,2.8-2.5,1.8-5.3c-0.6-1.6-2-2.8-3.7-2.6c-1,0.2-1.6,0.7-1.3,1.3C43.3,28.4,44.4,28.7,45,29.6L45,29.6z M30.1,40.2
	c2.3-0.3,3.4-3.8,4.2-5.1c0.7-1,2-1.8,2.9-1.5c3,1.1,1.1,4.7-2.2,6.2C33.5,40.5,31.8,40.7,30.1,40.2L30.1,40.2z M21.8,32.7
	c-2.3,2.8-0.9,7.2,2.4,8.5c1.4,0.5,3.3,0.5,4.8-0.2c-1.6,0.1-3.9-0.4-5.2-2c-1.5-1.8-1.3-3.6-0.3-4.6c1.6-1.5,5-0.5,7.1-1
	c0.7-0.1,1.7-0.8,2.5-1.6c0.5-0.5,0.9-1,1.2-1.5c-2.8,1.6-6.2,0.6-8.9,0.7C24,31.1,22.7,31.7,21.8,32.7L21.8,32.7z M32.3,28.6
	c0.3-0.3-0.1-0.6-0.5-1.8c-0.6-2,0.2-3.2,1.3-3.7c1.4-0.6,3.3-0.3,4.5-0.3c-1.4-1-3.2-1.5-4.7-1.3c-2.3,0.3-3.6,1.9-3.9,4.1
	c-0.4,2.1,0.1,3,1.2,3.2C30.8,28.9,31.9,29,32.3,28.6L32.3,28.6z M65.5,27.3c0.3-0.3,1-1,0.2-1.9c-0.5-0.6-0.8-1.1-0.9-1.5
	c-0.3-1.4,1.1-2.6,2-3c1.4-0.6,4.2-0.3,5.5-0.3c-1.4-0.8-3.6-1.1-5.7-0.5c-2,0.6-3.9,1.9-4.2,4.2c-0.2,1.2,0.1,1.8,0.4,2.3
	C63.3,27.6,64.8,28,65.5,27.3L65.5,27.3z M72.4,42.1c1.1-0.2,2-0.8,2.3-1.5c0.3-0.7,0-1.6-1.3-2.3c-1.4-0.7-3.1-1.1-2.1-3.1
	c0.6-1.3,1.8-2.4,3.6-3.9c-3.1,1.3-5.9,3.3-6.5,6.8C68.1,40,69.9,42.5,72.4,42.1L72.4,42.1z M82.8,41.6c0.6,0,0.7-0.5,0.1-0.8
	c-2.6-1.2-2.6-4.4-1.2-5.6c2.3-2,7-0.9,9.7-1.2c1-0.1,2.3-0.5,2.7-1.2c-0.9,0.4-1.8,0.6-3.2,0.7c-2.1,0.1-5.6-1-8.4-0.5
	c-2.8,0.6-5.5,3.6-3.8,6.4C79.4,40.4,81.1,41.5,82.8,41.6L82.8,41.6z M93.3,40.2c0.4,3-2,4-3.2,5c-0.9,0.8-3,0.9-2.2,3
	c0.3,0.8,1,1,1.6,1.1c0.8,0.1,2.1-0.3,2.9-1.2C93.9,46.5,94.4,42.5,93.3,40.2L93.3,40.2z M102,34.3c-1.5-0.3-3.1-0.2-4.4,0.6
	c1.9,0.1,4.9,0.3,5.7,3c0.3,1,0.3,3-1,3.4c-0.8,0.2-1.9,0-3.4-0.6c-1.8-0.8-3.5,0.4-4.3,2.4c2.4-2.2,5.1-0.3,7.4,0
	c1.7,0.2,3-0.7,3.5-2.1C106.8,37.9,104.9,35,102,34.3L102,34.3z M94,22.2c3.1,0.5,2.2,3.7,1.6,4.8c-0.7,1.3-3.1,2.7-5.3,3.4
	c2,0,4.8-0.1,6.5-2.6c2.2-3.4,1.2-6.8-1-7.7c-4.1-1.8-4.6,0.9-6.2,3.3c-0.6,0.9-1.3,1.5-2.3,1.9c-0.8,0.3-2.8,1-4.4,0.9
	c-2.1-0.1-4.4-0.8-6.6-1.6c-0.9-0.3-2-0.7-2.8-0.8c0.8,0.9,4.1,2.7,7.1,3.3c3.9,0.7,6.1,0,7.6-0.7C91.3,24.8,90.8,21.7,94,22.2
	L94,22.2z M77.1,16.8c0.1,1.5,0.8-0.6,3-1.3c2.3-0.8,5.9,1.4,4.7,4.1c-0.4,0.9-1.2,2-2.8,3c3.9,0.3,5.2-4,4.8-5.1
	c-0.3-0.9-0.7-1.8-1.4-2.5c-1.3-1.4-4-2.2-6-1.6C78.1,13.7,77,14.8,77.1,16.8L77.1,16.8z"/>
<path class="st3" d="M103.8,26.4c-0.3-1.1-1.2-2.3-2.5-3.2c1.6,0.2,3.9,1.1,4.8,2.6c0.3,0.5,0.4,1.4,0.2,2.3
	c-0.3,1.5-1.5,3.1-3.1,3.2c-0.9,0.1-1.6-0.3-1.2-0.9C102.6,29.3,104.7,29.1,103.8,26.4L103.8,26.4z M48,7.6c2.1-1.7,5.2-2,8-1.4
	c1,0.2,2.3,0.8,3.8,1.4c1.1,0.4,3.5,2.4,5.8,2c-0.8-0.3-1.5-0.6-2.1-1c-1.6-1-2.5-1.8-3.6-2.5c-2.6-1.7-6.9-2-9.7-0.6
	C49.2,6.1,48.4,6.7,48,7.6L48,7.6z M34.4,12c1.4-1.4,3.7-1.5,5.3-1.2c2,0.4,2.9,1.2,3.9,0.3c0.8-0.7,0-1.6-1.2-2.1
	c-1.4-0.5-3.6-0.5-5.3,0.2C35.8,9.8,34.9,10.7,34.4,12L34.4,12z M28.4,18.2c0.7-1,2-1.4,3.5-1.3c1,0.1,2.3,0.6,3.3,1.2
	c-0.9-1.2-2.2-1.9-3.5-2.2c-2-0.4-3.8,0.2-4.4,2.1c-0.6,1.8,0,3.2,0.6,2.3C28.2,19.9,28,18.8,28.4,18.2L28.4,18.2z M66.6,6.8
	c1.2-1.1,4-1.8,6-1.5c1.7,0.3,3.1,0.9,4.3,1.7c-0.2-0.8-0.7-1.5-1.3-2.1c-1.5-1.4-4-1.8-5.8-1.2C68.4,4.4,67.2,5.2,66.6,6.8
	L66.6,6.8z M77.8,10c1.2,0.1,2.6-0.2,3.9-0.6c3.7-1.1,7-1.1,9.1,2.9c0.3-3.5-2.7-5.3-5.5-5.4c-1.2,0-2.4,0.3-3.3,0.8
	C80.5,8.4,79.4,9.5,77.8,10L77.8,10z"/>
<path class="st5" d="M92,19c-2.2,0.6-2.1,3.9-4.8,5.5c-2.9,1.6-6.9,0.5-9.9-0.3c-3-0.9-5.9-1.8-7.7-1.6c-2.4,0.3-2.6,1-3.5,1.8
	c0.5-2.2,3.7-2.6,5.5-2.5c2.7,0.2,5.9,1.2,8.2,1.5c3,0.4,5.6,0.3,7.1-1.9c0.6-0.9,1-2,1-3c0.3-4.8-5.6-7-9.3-5.8c-3.1,1-2,3-2.7,3.4
	c-2.2,1.4-4.2,0.6-6.3-0.5c-3.4-1.7-6.5-3.9-10.8-4.8c-2.4-0.5-4.8-0.5-6.8,0.3c-1.8,0.6-3.4,2.2-4.1,4c-1.1,2.9-0.2,6.2,3.4,6.8
	c1.9,0.3,4-1.1,5.4-0.9c1.2,0.1,2,2.9-1.2,2.5c-0.4,0-0.2-1.4-1.2-1.1c-4.1,1.4-8.3,0.3-8.2-4.8c-1.1-0.3-2-0.4-2.8-0.4
	c-1.2,0.1-2.6,0.7-3.3,1.7c-0.2,0.3-0.3,0.5-0.7,1.3c0.3,0.8,2.2,0.9,2.8,0.7c0.2-0.1,0.5-0.1,0.6-0.3c0.7-0.5,1.6,0.5,0.6,1.2
	c-0.3,0.2-0.6,0.4-1,0.4c-0.8,0.2-1.8,0.1-2.6-0.1c-2.2-0.6-5.2-2-7.6-1.3c-3.6,1-3.9,5-3.7,8.1c1.5,0.6,3.5,1.2,5,0.5
	c0.3-0.2,0.3-0.8,0.2-1.5c-0.5-4,2.9-3.1,1.7,0.2c-0.6,1.7-2.7,2.5-4.5,2.5c-3.2,0-7.7-1.2-9.7,2.3c-1.2,2.1-1.2,4.9,0.4,6.9
	c1.5,1.9,4.3,3.2,7.1,3.2c1.9,0,7.9-0.1,8.7,1.7c-2.6-1-5.5-0.5-7.5-0.3c-0.8,0.1-1.7,0.1-2.8,0c0.5,0.7,0.8,1.4,1,2.1
	c2.7,1.1,5.8,2.9,8.9,3.8c2.7,0.8,7.8,0.5,11,0.8c1.8,0.1,1.4,0.1,4.7,0.5c2.8,0.4,5.6,0.8,8.7,0.8c2.7-0.1,5.6-0.5,7.8-0.4
	c4.7,0.1,8.2,1.1,12,1c2.4-0.1,4.2-1.3,6.5-2.5l0,0c-0.2-0.1-0.3-0.2-0.5-0.3c-2.3-1.4-1.8-4-0.1-5.7c0.4-0.4,0.9-0.7,1.3-0.8
	c-1,1-1.5,1.7-1.8,3c-0.3,1.2,0.3,2.1,1.3,2.7c1,0.6,2.5,0.8,3.7,0.4c2.4-0.7,2.9-5.6,4.9-6.4c1.9-0.7,3.9,0.3,5.1,0.5
	c4.1,0.7,5.6-3.4,5-6.7c-0.4-2.2-1.6-3-3.1-3.4c-1.2-0.3-2.8-0.3-3.9-0.8c-1.1-0.5-1.5-1.4-2.7-1.8c-0.8-0.3-3.1,1.1-5.1,1.3
	c-2,0.2-4.1-0.2-6.5-0.4c-3.7-0.3-6,0.7-7.3,3.2c-0.5,0.9-0.7,2.2-1,3.4c-0.5-3.5,1.4-5.8,3.2-6.8c5.8-3.2,14.1,2.8,17.7-4.9
	c0.7-1.4,0.9-3,0.5-4.4C97.6,19.9,94.6,18.3,92,19L92,19z M102.5,55.3c-2.7,1.1-5.6,0.8-8.8,0.5c-6.1-0.6-9.1-0.5-14.7,1.9
	c-2.3,1-4.5,1.9-6.6,1.8c-4.1-0.2-7.6-2.7-11.9-2.9c-4.4-0.3-7.6,2-12.4,1.4c-3.8-0.5-6.7-1.5-9.5-2.6c-2.1-0.8-3.8-1.4-6.1-1.8
	c-1.4-0.2-2.7-0.1-4.9-1.1c-4.6-2-9.2-7.8-14.5-8.6c-2.5-0.4-7-0.2-9-1.9c-0.5-0.3-0.9-1.6-0.8-2.5c0.4,0.5,0.9,1.2,1.5,1.5
	c2.4,1.1,6.5,0.8,8.5,1.2c4.3,0.7,8.1,5,11.8,7.8c0.9,0.7,1.9,1.3,2.8,1.7c2.1,0.9,3.4,0.8,4.7,1c2.3,0.4,4.1,1,6.3,1.8
	c2.8,1,5.6,2.1,9.3,2.5c4.6,0.6,7.4-1.7,12-1.6c4.6,0.1,8.2,3,12.1,3.1c3.8,0.1,7.7-2.9,11.4-3.7c5.8-1.3,13,1.6,18.3-0.5
	c2.3-0.9,6.5-2.7,8.8-5.3c2.7-3,1.8-5-0.6-7.8c-0.5-0.6-1-1-0.8-1.7c0.6-3,5.3-5.1,2.3-8.9c-0.8-1-2.2-1.8-3.3-2.4
	c-0.2,1-0.5,2.1-0.9,3c-0.4,1-0.9,2.1-1.4,2.8c0.9,0.9,1.6,2,1.8,3.2c0.3,1.5,0.1,3.3-0.6,4.7c0.3,0.6,0.4,1.3,0.4,2
	c-0.3,2.7-2.6,4.1-5.3,4.9c-2.6,0.7-5.7,0.9-7.7,1.3c-1.2,0.2-2.3,0.4-3.3,0.9c-4.1,1.7-6.6,3.2-10.3,3.4c-1.1,0.1-2.4,0-3.9-0.2
	c-2.7-0.4-5.3-0.8-8.1-0.8c-2.6,0-5.2,0.1-7.7,0.1c-1.5,0-2.8,0.2-4.4,0.1c-3.3-0.1-6.3-1.2-9.5-1.4c-2.6-0.2-8.6,0.4-12-1
	c-3.7-1.6-5.5-2.9-9.7-4c-1.3-0.4-3-2-4.5-3.4c-1.5-1.4-2.6-2.2-4-2.8c-1.3-0.5-2.9-0.8-5.2-1c-3-0.2-5.9-0.2-8.9-0.4
	c0.1-0.4,0.4-0.5,0.8-0.5c1.9-0.6,8.3-0.5,10-0.6c2.2-0.1,3.7-0.7,5-1.6c-0.1-0.7-0.2-1.5,0-2.2c0.2-1.4,0.8-2.6,1.6-3.6
	c-0.1-0.1-0.2-0.3-0.2-0.4c-0.2-0.4-0.3-0.7-0.4-1.1c-3.4,1.6-4.9,2.8-7.2,5.9c-0.7,1-1.7,1.8-4,2c-0.9,0.1-3.1,0.1-4.5,0.7
	c-0.6,0.2-1,0.6-1.2,1c0-1.3,1.7-1.6,2.8-2c3.7-1,4.6-0.7,7.7-4c2-2.1,3.7-3.4,6.1-4.6c-0.4-2.8,1.3-5.2,4.2-6.6
	c0.8-0.4,1-1.7,1.2-2.8c0.4-2.1,0.9-3.1,1.7-3.8c0.8-0.6,1.8-0.9,3.3-1.4c1-0.4,1.8-1.1,2.2-2.4c1-3,3.6-4.7,6.5-5.1
	c1.9-0.3,4,0.1,5.8,1.2c2.2-3.9,7.2-5.5,10.5-5.3C59.7,2.7,62.6,5,63.8,6C65.2,3.2,68,2,71.2,1.8C74.5,1.7,76.6,2.5,79,5
	c0.4,0.4,0.7,0.7,1.2,1.1c2.6-1.3,5.4-1.4,7.8-0.6c2.3,0.8,4.1,2.4,4.8,4.6c0.4,1.2,0.6,2.5,0.8,3.7c2.4-1,6.7-1.1,8.3,1.4
	c0.9,1.4,0.5,2.5,0,3.3c-0.6,1.2-0.2,1.8,0.8,2.6c1.7,1.5,3.3,1.4,4.9,3.4c0.8,1,1,2,0.9,3.1c1,0.6,3.5,1.8,4.5,3.8
	c0.8,0.4,1.3,1.2,1.5,2.2c0.2,1.1,0.1,2.4-0.4,3.5c-1,2.4,0.5,3,1.7,5c0.8,1.3,1.5,2.4,1.5,4.3c-0.1,2.1-0.7,3.8-1.4,4.8
	c-0.1,0.2-0.9,0.6-0.9,1.7c0.1,4.3-0.7,11.4-0.9,12.7c-0.1,1.2-1.8,4.6-2.4,5.5c-1.3,2.1-2.5,4.6-2,8.6l0,0.1
	c-1.7,5.1-4.3,7.3-8.9,9.4c-1.6,0.8-3.3,1.6-5.1,2.8c-0.3,0.2-0.9,0.6-1.6,1c-1.4,1-2.9,1.9-4.6,3.2c-0.3,0.2-0.5,0.3-0.7,0.4
	c-0.4,0.1-1.1,0.1-1.6,0.2c-1.3,0.3-2.6,0.7-3.1,1c-4.5,2.5-5.5,1.1-9.7,2.1c-1.3,0.3-2.4,0.7-4,1c-2.2,0.3-4.6,0.2-6.9-0.2
	c-7-1.1-13.4-4-20.6-4.5c-1.5-0.1-3-0.4-4.4-0.9c-1.4-0.5-2.6-1.2-3.7-2c-0.4-0.3-0.8-0.6-1.2-0.9c-1.9-1.4-3.8-3.3-4.7-5.3
	c-0.1-0.2-0.1-0.3-0.2-0.5c-0.1-0.3-0.2-1.1-0.6-1.5c-0.3-0.3-0.8-0.5-1.2-0.7c-0.5-0.3-1.1-0.5-1.5-0.9c-1-0.9-1.6-1.9-2.4-3
	c-0.6-0.8-1.2-1.7-2-2.7c-2.3-2.8-1.5-3.9-1-5.3c0.3-0.8,0.6-1.7,0.2-3.3c-0.2-1-1-2.1-1.8-3.2c-0.9-1.2-2.3-2.3-2.4-3.5
	c-0.2-1.5-2-5.4-3.4-8.9C11.1,50,9.4,49,8.2,48.2c-1.4-0.4-3.3-0.8-4.6-1.9c-0.7-0.6-1.5-1.7-1.4-2.8c-0.1-0.7,0.4-1.9,0.7-2.6
	c0.1-0.3,0.3-0.8,0.5-1c0,1-0.3,2.3-0.1,3.1c0.2,0.9,1,1.5,1.9,1.9c2.2,0.9,4.6,1.2,7.3,2.3c1.1,0.4,2.3,1,3.3,1.5
	c1.6,0.8,3.7,2.2,4.5,3.8c-0.6-0.1-4-2.3-4.8-2.7c-1.3-0.7-2.8-1.1-4.1-1.3c0.9,1.5,1.8,2.6,2.6,4.6c1.5,3.6,2.6,7.5,2.8,9.1
	c0.1,1,1.6,2,2.4,3.1c0.9,1.1,1.7,2.3,2,3.5c0.4,1.8,0,2.9-0.3,3.8c-0.4,1.1-1.3,2,0.7,4.4c0.9,1,1.5,1.9,2,2.8
	c0.7,1.1,1.4,2,2.3,2.9c0.3,0.3,0.8,0.5,1.2,0.7c0.5,0.3,1.1,0.5,1.5,0.9c0.6,0.6,0.7,1,0.8,1.4c0,0.1,0.1,0.3,0.1,0.4
	c0.8,1.8,2.6,3.1,4.4,4.4c0.4,0.3,0.8,0.6,1.3,0.9c1,0.8,2.2,1.4,3.5,1.9c1.3,0.5,2.7,0.8,4.1,0.9c7.3,0.5,13.7,3.5,20.7,4.5
	c2.2,0.3,4.5,0.5,6.6,0.2c1.2-0.2,2.4-0.8,3.4-1.3l0.3-0.1l0.1,0c4.4,0.3,6.3,0.2,10.3-1.9c0.8-0.4,1.5-0.8,2.1-1
	c0.6-0.2,1.2-0.2,1.7-0.1c0.4,0.1,0.7,0.1,1,0c1.7-1.2,3.2-2.2,4.6-3.2c0.4-0.3,0.8-0.6,1.6-1c1.8-1.2,3.6-2,5.2-2.8
	c3.6-1.7,6.7-3.2,8.4-8.2c-0.5-4.3,0.7-6.4,2.1-8.6c0.9-1.4,1.8-2.9,2.3-5.2l0,0c0.6-3,0.5-8.8,0.1-12c-0.6,0.4-1.3,0.9-1.9,1.3
	c-1.8,1.3-3.4,2.3-5.6,3.1c-2,0.7-4.2,0.5-5.3-0.1c2.6-0.3,5-1,7.3-2.3c1-0.6,2.1-1.3,3-1.9c0.8-0.5,1.8-1.1,2.4-1.7
	c2.3-2.1,3.2-6.1,1.5-8.8c-0.5-0.9-1.5-1.7-2-3.5c-0.2-0.8,0.1-1.8,0.5-2.7c0.3-0.7,0.6-1.8,0.5-2.8c0-0.8-0.3-1.6-0.6-2.1
	c0.2,0.4,0.3,0.9,0.2,1.3c-0.1,1.9-1.5,3.7-2.1,4.7c-0.6,1-0.9,1.9-0.2,3c0.9,1.5,2.1,2.8,2.3,4.1C114.3,49.9,108.9,52.8,102.5,55.3
	L102.5,55.3z M73.4,9.4c1.5-0.1,2.1-0.1,3.1-0.6c0.6-0.4,0.6-0.3,2-1.3c-1.3-3-3.9-4.7-7.2-4.5c-2.9,0.2-5.8,1.7-6.1,4.4
	c1.1,1.3,3.4,1.6,5,1.8c-1.2,0.5-3.5,0.1-4.6-0.4c-0.9-0.4-1.6-0.8-2.3-1.4c-1.1-1-3.8-3.3-8.2-3.5c-3.2-0.2-8.9,1.9-9.7,5.3
	c0,0.3-0.4,0.5-0.7,0.3C43,8.3,41.1,7.7,39,7.8c-1.5,0.1-2.7,0.7-3.7,1.6c-1.4,1.3-2.1,3.2-2.2,5.5c1.4,0.4,2.9,1.8,2.7,3.2
	c-0.4-0.7-1.1-1.3-1.7-1.8c-1.9-1.3-5.1-1.9-6.7,0.1c-1,1.2-1,2.9-1,4.9c0,0.7,0,1.3-0.7,1.7c-0.5,0.1-1.5,0.3-2.1,0.5
	c-1.5,0.6-2.4,1.5-2.7,2.7c-0.3,1.6,0.3,2.9,1.2,3.5c1.3-0.9,3-1.3,5.1-1.2c-0.1-2.2,0.1-4,0.5-5.3c1.1-3.3,3.8-5,7.8-4.5
	c1.2,0.1,2.1,0.5,2.7,0.7c0.4-0.9,0.7-1.4,1-1.8c1.1-1.5,2.3-1.8,3.5-1.9c0.6-0.1,1.3-0.1,2-0.3c1.2-0.3,1.8-1,2.4-2
	c3.2-5.3,10.8-4.7,15.8-2.7c4,1.6,7.4,3.8,10.1,3.6c1-0.1,2.1-2.6,6.1-3c2.6-0.3,5.4,0.2,7.2,1.5C88,14,89,16,89,18
	c2.3-2,8.4-1.3,10.2,2c2.2,4.1-0.3,7.7-0.9,8.6c0.3,1.1,0.5,2,1.8,2.9c0.9,0.5,2.1,0.7,3.2,1.1c3-0.6,5-5.2,3.4-7.2
	c-1.4-1.8-3.4-2-5-3.4c-1.3-1.2-1.6-2.2-0.8-3.8c0.3-0.6,0.6-1.2,0-2.2c-1.5-2.2-5.8-1.7-7.9-0.6c-0.3,0.2-0.6,0-0.7-0.3
	c-0.2-1.4-0.3-2.7-0.5-3.8c-0.6-2.1-2.3-3.8-4.5-4.5c-2.1-0.6-4.6-0.4-6.2,0.5c-1,0.6-1.8,1.5-3.3,2.1C76.6,9.8,75.1,10.1,73.4,9.4
	L73.4,9.4z M46.8,47.5c2.3,1.6,4.4,2.1,6.6,2c1.8-0.1,3.3-0.8,4.3-1.9c0.9-0.9,1.3-2.2,1.3-3.8c0-1.4-0.3-2.3-0.7-2.9
	c-0.6-0.8-1.5-1.1-2.6-1.5c-0.2-0.1-0.4-0.1-0.9,0.3c-0.5,0.5-2.1,0.4-2.3-0.6c-0.1-0.5,0.8-1.6,2.1-1.6c2.8,0,4.9,2.5,5.3,4.5
	c0.5,2-0.1,2.9,0,4.5c0.1,1.1,0.5,2.1,1.8,2.7c3.1,1.6,7.1-1,6.9-4.5c0.5,1.4-0.5,3.6-0.7,3.7c0.7,0.1,1,0.1,1.9,0.4
	c1,0.3,2,0.7,3.1,1c2.7,0.7,6,0.6,7-2.4c0.6-1.7-0.5-2.9-1.6-3.1c-1.1-0.2-1.8-0.6-1.1-1.2c0.4-0.4,1-0.7,1.4-1.1
	c0.2-0.2,0.7-0.3,1.1-0.2c0.5,0.1,0.3,0.6,0,0.7c-0.2,0-0.5,0-0.8,0.3c-0.1,0.1-0.1,0.4,0,0.7c0.1,0.3,0.2,0.4,0.8,1
	c1,1.1,1.5,2.5,1.1,3.6c-0.6,1.7-2,2.7-3.6,3.1c-2.1,0.5-4.6-0.2-6.6-1c-2.4-0.9-2.9-0.9-5,0.2c-1.2,0.6-3.1,0.8-4.4,0.3
	c-1.3-0.5-2-0.8-2.7-0.7c-1.6,0.1-2,1.2-5.7,1.1c-5.4-0.2-6.3-4.6-12.3-5.4C41.6,45,44.5,45.9,46.8,47.5L46.8,47.5z M42.7,42.2
	c-1.3,0.1-2.9-1.1-3.3-2.3c-0.8-2.7,0.4-2.8,0.5-4.9c0-1.9-2.3-3-3.8-2.4c-3.1,1.3-3.9,5.9-8,5.9c-1.3,0-2.4-0.4-2.7-0.7
	c-1.2-1.1,0.1-2.6,1.3-2.2c0.3,0.1,1.7,0.7,1.9,0.8c2.7,1.2,4.2-2.1,5.7-3.8c2.8-3.4,7.4-0.7,6.7,2.8c-0.5,2.4-1.9,3.3-0.4,5.5
	C41.1,41.3,41.8,41.8,42.7,42.2L42.7,42.2z M40.5,29.9c-0.8-2.4,0.4-4.5,2.5-5.3c3.6-1.4,7,0.9,8.3,4.1c0.2,0.6,0.5,1.1,1,1.6
	c0.5,0.5,1.5,0.7,2.7,0.9c2.1,0.3,3.8,0.9,5.2,2.1c2.3,2,1.8,5,3,7.7c0.7,1.5,1.7,2,2.2,2.7c0.4,0.7,0.3,1.3-0.2,1.6
	c-0.5,0.4-1.4,0.3-1.9-0.8c-0.5-1.1-0.7-2.9-0.8-3.4c-0.7-2.8-1.5-5.2-3.4-6.9c-1-0.9-2.3-1.5-4.2-1.7c-2.9-0.4-5.9,0.7-7.5,2.8
	c-1.5,1.9-1.7,4.8-0.5,6.8c0.6,1,1.7,1.7,4.1,1.5c1.5-0.1,2.5,0.4,2.5,1c0.1,0.5-0.8,1-2.8,0.9c-1.9-0.2-4.1-1.3-4.9-3
	c-1.2-2.8-0.5-5.5,0.9-7.7c0.8-1.3,2-2.3,2.3-3.6c0.4-1.6,0-3-0.9-3.9C46.1,24.7,41.1,25,40.5,29.9L40.5,29.9z M60.7,24.3
	c0.3-1.8,1.4-2.7,1.2-5.1c-0.3-3.2-5.5-4.6-7.3-2.4c-1.1,1.4-2.1,1.4-2.6,0.7c-0.2-0.3-0.2-0.7,0-1.2c0.6-1,2.3-1.7,3.6-1.9
	c2.6-0.4,5.2,0.6,6.4,2.5c1.2,1.9,1.6,2.3,3.9,1.8c1.3-0.3,3.4-0.4,4.7-0.4c3.4,0.2,7.7,2.5,9.7-1.2c0.7-1.2,3-0.8,3.5,0.5
	c0.5,1.3-0.2,2.1-0.8,2.4c-0.7,0.4-2,0.8-3.7,0.7c-1.7-0.1-7.3-1.4-8.8-1.6c-3.8-0.3-8.3,0.8-9,5.2c-0.3,2.1,1.5,4.5,3.7,4.1
	c0.4-0.1,1.2-0.9,1.9-0.8c0.5,0.1,0.9,0.5,0.9,0.9c0,0.5-0.4,1.3-1.2,1c-0.7-0.1-1.4,0.5-1.8,1c-0.7,1-0.8,2.4-0.9,3.2
	c-0.8-0.9-0.4-2.1-0.5-3C63.3,28.3,60.1,28,60.7,24.3L60.7,24.3z M69.7,26.3c-0.6-0.4-1.2-0.7-2-0.6c2.1-1.6,3.8,0.5,5.5,1.6
	c1.4,0.9,3.5,1.7,7.5,1.5c3.7-0.1,6.2-0.7,7.9-1.5c3.2-1.4,3.3-3.8,4.2-4.2c0.8-0.3,2,0.3,1.1,1.8c-0.4,0.6-1.2,1.3-2,1.8
	c-6.6,4-11.9,1.4-17.8,3.6c-3.5,1.3-8,6.5-6,10.2c1.2,2.2,4.1,2.8,6.2,1.5c0.7-0.4,1.4-1.1,1.9-2c0,1.3-0.8,2.3-1.9,2.9
	c-4.1,2.1-9.4-1.6-7.7-6.4c0.6-1.8,1.9-3.4,3.3-4.6C72.8,29.5,72.1,28,69.7,26.3L69.7,26.3z M102.1,40.2c-1.2,0.6-3.4-0.9-4.5-1
	c-0.4,0-1.4,2.3-2.9,0.6c-0.4-0.5,1-1.6,0-2.4c-1.1-0.9-2.3-1-3.2-0.8c-1.9,0.5-2.4,1.6-3,2.8c-0.6,1.3-1.3,2.4-2.1,3.1
	c-0.9,0.7-2.9,1.4-4.5,0.5c-0.2-0.1-0.9-0.8,0.1-0.5c1.5,0.5,2.7,0.6,4-0.8c1.1-1.2,1.4-3,2.2-4.5c0.5-1,1.3-1.9,2.7-2.2
	c0.6-0.2,1.3-0.2,1.9-0.2c1.2,0.1,3.3,1.1,3.3,2.4c0,0.8-0.4,1.6,1.7,1.2C98.8,38.3,100.3,39.9,102.1,40.2L102.1,40.2z M19.6,38.2
	c-0.7,0.6-1.6,1.1-3,1.1c1.9,0.5,3.6,1.4,5.1,3c1.3,1.4,2.4,2.4,3.5,3c-0.1-1.9-3-3.3-4.1-4.6C20.4,40,19.9,39.1,19.6,38.2
	L19.6,38.2z M105.2,44.3c0,0-0.1,0.1-0.2,0.1c-2.9,1.5-5.3,0.3-7.2,1c-1.9,0.7-2.6,2-3.4,3.1c2.6-0.3,7.6,0.1,9.9-1.9
	C105.1,45.9,105.6,45.3,105.2,44.3L105.2,44.3z"/>
</svg>
